<svg xmlns="http://www.w3.org/2000/svg" width="72.028" height="36.44">
  <defs>
    <linearGradient id="logoGradientFill" x1=".5" x2="1.054" y1="2.093" y2="-.486" gradientUnits="objectBoundingBox">
      <stop offset="0" stop-color="#ff00c6"/>
      <stop offset="1" stop-color="#ff0089"/>
    </linearGradient>
  </defs>
  <g fill="url(#logoGradientFill)">
    <path d="M22.57058 3.08012a2.525 2.525 0 0 1 1.3.588 1.323 1.323 0 0 1 .434.98 1.63 1.63 0 0 1-.518 1.344 2.306 2.306 0 0 1-1.638.336q-2.52-.2-3.934-.266t-3.71-.1q-1.034 5.158-1.902 10.358-.308 1.9-.644 4.41t-.448 4.05a1.574 1.574 0 0 1-.672 1.246 2.51 2.51 0 0 1-1.484.434 2.079 2.079 0 0 1-1.432-.448 1.5 1.5 0 0 1-.5-1.176 19.02 19.02 0 0 1 .21-2.226q.21-1.554.49-3.262.308-1.708.476-2.968.308-2.128.7-4.228t.784-3.976q.084-.42.2-.966t.252-1.218a23.136 23.136 0 0 0-4.312.448 4.626 4.626 0 0 0-2.23 1.022 2.293 2.293 0 0 0-.658 1.694 3.306 3.306 0 0 0 .56 1.82.833.833 0 0 1 .112.42 1.272 1.272 0 0 1-.63.994 2.176 2.176 0 0 1-1.3.462 1.121 1.121 0 0 1-.784-.28 3.488 3.488 0 0 1-.924-1.358 5.208 5.208 0 0 1-.364-2 4.966 4.966 0 0 1 1.552-3.824 9.886 9.886 0 0 1 4.732-2.114 40.639 40.639 0 0 1 8.162-.672q3.08 0 4.914.112a27.117 27.117 0 0 1 3.206.364zm-1.54 23.38a1.53 1.53 0 0 1-1.5-1.12 10.732 10.732 0 0 1-.434-3.584 22.8 22.8 0 0 1 1.036-6.916 2.106 2.106 0 0 1 .826-1.19 2.913 2.913 0 0 1 1.61-.378 1.578 1.578 0 0 1 .784.14.578.578 0 0 1 .224.532 10.674 10.674 0 0 1-.42 2.016q-.28 1.12-.448 1.96a20.086 20.086 0 0 0-.28 2.072 15.92 15.92 0 0 1 2.072-3.92 8.125 8.125 0 0 1 2.256-2.152 4.1 4.1 0 0 1 2.03-.644 1.609 1.609 0 0 1 1.82 1.82 14.069 14.069 0 0 1-.252 1.764 10.317 10.317 0 0 0-.224 1.4q0 .98.7.98a3.365 3.365 0 0 0 2.016-1.232 1.072 1.072 0 0 1 .756-.364.652.652 0 0 1 .574.322 1.543 1.543 0 0 1 .21.854 2.259 2.259 0 0 1-.564 1.62 7.586 7.586 0 0 1-1.83 1.386 4.572 4.572 0 0 1-2.226.574 3.089 3.089 0 0 1-2.254-.756 2.734 2.734 0 0 1-.77-2.044 4.274 4.274 0 0 1 .084-.84q.056-.56.056-.756 0-.448-.308-.448-.42 0-1.106.938a13.163 13.163 0 0 0-1.358 2.478 20.113 20.113 0 0 0-1.088 3.248 4.367 4.367 0 0 1-.714 1.778 1.611 1.611 0 0 1-1.278.462zm23.24-6.384a.647.647 0 0 1 .574.336 1.737 1.737 0 0 1 .21.924 2.575 2.575 0 0 1-.532 1.736 10.229 10.229 0 0 1-2.926 2.324 8.117 8.117 0 0 1-4.046 1.064 6.234 6.234 0 0 1-4.564-1.6 5.845 5.845 0 0 1-1.624-4.364 8.1 8.1 0 0 1 .812-3.6 6.649 6.649 0 0 1 2.254-2.646 5.669 5.669 0 0 1 3.262-.98 3.548 3.548 0 0 1 2.6.966 3.509 3.509 0 0 1 .98 2.618 4.527 4.527 0 0 1-1.386 3.318 10.022 10.022 0 0 1-4.69 2.2 2.75 2.75 0 0 0 2.66 1.288 6.124 6.124 0 0 0 2.87-.882 9.479 9.479 0 0 0 2.786-2.31.983.983 0 0 1 .76-.392zm-7.056-4.056a2.052 2.052 0 0 0-1.75 1.2 5.612 5.612 0 0 0-.714 2.912v.056a6.363 6.363 0 0 0 2.6-1.176 2.311 2.311 0 0 0 .952-1.82 1.217 1.217 0 0 0-.294-.854 1.027 1.027 0 0 0-.794-.318zm16.184 4.06a.647.647 0 0 1 .574.336 1.737 1.737 0 0 1 .21.924 2.575 2.575 0 0 1-.532 1.736 12.063 12.063 0 0 1-2.618 2.432 5.608 5.608 0 0 1-3.21.952 3.888 3.888 0 0 1-3.65-2.24 12.323 12.323 0 0 1-1.19-5.8 39.81 39.81 0 0 1 .882-7.784 26.412 26.412 0 0 1 2.6-7.5q1.722-3.136 4.1-3.136a2.375 2.375 0 0 1 2.114 1.246 6.83 6.83 0 0 1 .77 3.57 20.393 20.393 0 0 1-1.848 7.728 42.8 42.8 0 0 1-5.012 8.708 3.25 3.25 0 0 0 .644 1.638 1.518 1.518 0 0 0 1.176.49 3.245 3.245 0 0 0 2.022-.66 15.363 15.363 0 0 0 2.212-2.252.983.983 0 0 1 .756-.392zm-3.444-17.3q-.644 0-1.456 2.324a38.192 38.192 0 0 0-1.428 5.768 41.754 41.754 0 0 0-.672 6.608 36.085 36.085 0 0 0 3.164-6.566 18 18 0 0 0 1.176-6.006q0-2.136-.784-2.136zm12.568 17.296a.647.647 0 0 1 .574.336 1.737 1.737 0 0 1 .21.924 2.575 2.575 0 0 1-.532 1.736 12.063 12.063 0 0 1-2.614 2.436 5.608 5.608 0 0 1-3.206.952 3.888 3.888 0 0 1-3.654-2.24 12.323 12.323 0 0 1-1.19-5.8 39.81 39.81 0 0 1 .882-7.784 26.412 26.412 0 0 1 2.6-7.5q1.722-3.136 4.1-3.136a2.375 2.375 0 0 1 2.114 1.246 6.83 6.83 0 0 1 .77 3.57 20.393 20.393 0 0 1-1.848 7.728 42.8 42.8 0 0 1-5.006 8.708 3.25 3.25 0 0 0 .644 1.638 1.518 1.518 0 0 0 1.176.49 3.245 3.245 0 0 0 2.016-.66 15.363 15.363 0 0 0 2.212-2.254.983.983 0 0 1 .752-.39zm-3.444-17.3q-.644 0-1.456 2.324a38.193 38.193 0 0 0-1.428 5.768 41.755 41.755 0 0 0-.672 6.604 36.085 36.085 0 0 0 3.164-6.566 18 18 0 0 0 1.176-6.006q.004-2.128-.78-2.128zm6.696 23.684a4.73 4.73 0 0 1-2.814-.826 5.13 5.13 0 0 1-1.75-2.17 7.116 7.116 0 0 1-.588-2.884 8.677 8.677 0 0 1 .8-3.794 6.442 6.442 0 0 1 2.17-2.6 5.332 5.332 0 0 1 3.08-.938 4.794 4.794 0 0 1 2.828.826 5.092 5.092 0 0 1 1.764 2.17 7.116 7.116 0 0 1 .586 2.876 8.551 8.551 0 0 1-.812 3.8 6.5 6.5 0 0 1-2.2 2.6 5.352 5.352 0 0 1-3.064.94zm.308-3.024a1.9 1.9 0 0 0 1.61-1.036 5.681 5.681 0 0 0 .658-3.024 3.99 3.99 0 0 0-.56-2.324 1.625 1.625 0 0 0-1.344-.784 1.938 1.938 0 0 0-1.666 1.022 5.67 5.67 0 0 0-.658 3.038 3.969 3.969 0 0 0 .56 2.352 1.684 1.684 0 0 0 1.4.756z" data-name="Path 12"/>
    <path d="M36.18658 36.44012a5.885 5.885 0 0 1-2.154-.348 3 3 0 0 1-1.326-.93 2.19 2.19 0 0 1-.468-1.278.254.254 0 0 1 .078-.186.254.254 0 0 1 .186-.078h2.28a.721.721 0 0 1 .27.042 1.019 1.019 0 0 1 .246.162 1.385 1.385 0 0 0 .888.276 1.948 1.948 0 0 0 .654-.09q.246-.09.246-.246 0-.216-.324-.33a7.214 7.214 0 0 0-1.224-.234q-3.096-.408-3.096-2.64a2.363 2.363 0 0 1 .462-1.434 2.991 2.991 0 0 1 1.29-.978 4.89 4.89 0 0 1 1.908-.348 4.778 4.778 0 0 1 1.98.384 3.388 3.388 0 0 1 1.308.966 2 2 0 0 1 .48 1.134.254.254 0 0 1-.078.186.241.241 0 0 1-.174.078h-2.396a.674.674 0 0 1-.264-.042.848.848 0 0 1-.216-.15.943.943 0 0 0-.64-.216q-.576 0-.576.336 0 .18.282.3a4.52 4.52 0 0 0 1.05.216 7.4 7.4 0 0 1 1.926.468 2.249 2.249 0 0 1 1.056.834 2.417 2.417 0 0 1 .33 1.314 2.315 2.315 0 0 1-.516 1.494 3.286 3.286 0 0 1-1.422.99 5.671 5.671 0 0 1-2.046.348zm6.96-.12a.311.311 0 0 1-.224-.1.311.311 0 0 1-.1-.228v-5.5h-1.992a.311.311 0 0 1-.228-.1.311.311 0 0 1-.1-.228v-1.92a.311.311 0 0 1 .1-.228.311.311 0 0 1 .228-.1h7.032a.311.311 0 0 1 .228.1.311.311 0 0 1 .1.228v1.932a.311.311 0 0 1-.1.228.311.311 0 0 1-.228.1h-1.992v5.5a.311.311 0 0 1-.1.228.311.311 0 0 1-.228.1zm4.676 0a.254.254 0 0 1-.186-.078.254.254 0 0 1-.078-.186.266.266 0 0 1 .012-.084l2.68-7.652a.614.614 0 0 1 .18-.276.515.515 0 0 1 .36-.12h2.6a.515.515 0 0 1 .36.12.614.614 0 0 1 .18.276l2.68 7.652a.266.266 0 0 1 .012.084.254.254 0 0 1-.078.186.254.254 0 0 1-.186.078h-2.22a.446.446 0 0 1-.468-.3l-.288-.792h-2.58l-.288.792a.446.446 0 0 1-.468.3zm3.588-3.432h1.356l-.684-2.232zm7.228 3.432a.311.311 0 0 1-.228-.1.311.311 0 0 1-.1-.228v-5.5h-1.988a.311.311 0 0 1-.228-.1.311.311 0 0 1-.1-.228v-1.92a.311.311 0 0 1 .1-.228.311.311 0 0 1 .228-.1h7.032a.311.311 0 0 1 .228.1.311.311 0 0 1 .1.228v1.932a.311.311 0 0 1-.1.228.311.311 0 0 1-.228.1h-1.992v5.5a.311.311 0 0 1-.1.228.311.311 0 0 1-.228.1zm9.408.12a5.885 5.885 0 0 1-2.154-.348 3 3 0 0 1-1.326-.93 2.19 2.19 0 0 1-.468-1.278.254.254 0 0 1 .078-.186.254.254 0 0 1 .186-.078h2.28a.721.721 0 0 1 .27.042 1.019 1.019 0 0 1 .246.162 1.385 1.385 0 0 0 .888.276 1.948 1.948 0 0 0 .654-.09q.246-.09.246-.246 0-.216-.324-.33a7.214 7.214 0 0 0-1.224-.234q-3.1-.408-3.1-2.64a2.363 2.363 0 0 1 .462-1.434 2.991 2.991 0 0 1 1.29-.978 4.89 4.89 0 0 1 1.912-.348 4.778 4.778 0 0 1 1.98.384 3.388 3.388 0 0 1 1.308.966 2 2 0 0 1 .48 1.134.254.254 0 0 1-.078.186.241.241 0 0 1-.174.078h-2.4a.674.674 0 0 1-.264-.042.848.848 0 0 1-.216-.15.943.943 0 0 0-.636-.216q-.576 0-.576.336 0 .18.282.3a4.52 4.52 0 0 0 1.05.216 7.4 7.4 0 0 1 1.926.468 2.249 2.249 0 0 1 1.056.834 2.417 2.417 0 0 1 .33 1.314 2.315 2.315 0 0 1-.516 1.494 3.286 3.286 0 0 1-1.422.99 5.671 5.671 0 0 1-2.046.348z" data-name="Path 13"/>
  </g>
</svg>
